<?xml version="1.0" encoding="utf-8"?>
<!-- Generator: Adobe Illustrator 19.1.0, SVG Export Plug-In . SVG Version: 6.00 Build 0)  -->
<svg version="1.1" id="Layer_1" xmlns="http://www.w3.org/2000/svg" xmlns:xlink="http://www.w3.org/1999/xlink" x="0px" y="0px"
	 viewBox="0 0 17.1 17.1" style="enable-background:new 0 0 17.1 17.1;" xml:space="preserve">
<style type="text/css">
	.st0{fill:#FFFFFF;}
</style>
<path class="st0" d="M13.7,8.5c0,2.9-2.3,5.2-5.2,5.2c-2.9,0-5.2-2.3-5.2-5.2c0-0.3,0-0.7,0.1-1H0v6.9c0,1.5,1.2,2.7,2.7,2.7h11.7
	c1.5,0,2.7-1.2,2.7-2.7V7.5h-3.5C13.7,7.9,13.7,8.2,13.7,8.5z M14.4,0H2.7C1.2,0,0,1.2,0,2.7v2.9h4.3c0.9-1.3,2.5-2.2,4.2-2.2
	s3.3,0.9,4.2,2.2h4.3V2.7C17.1,1.2,15.9,0,14.4,0z M15.7,3.3c0,0.3-0.2,0.5-0.5,0.5h-1.4c-0.3,0-0.5-0.2-0.5-0.5V1.9
	c0-0.3,0.2-0.5,0.5-0.5h1.4c0.3,0,0.5,0.2,0.5,0.5V3.3z M11.7,8.5c0-1.8-1.4-3.2-3.2-3.2c-1.8,0-3.2,1.4-3.2,3.2
	c0,1.8,1.4,3.2,3.2,3.2C10.3,11.7,11.7,10.3,11.7,8.5z"/>
</svg>
