<?xml version="1.0" encoding="utf-8"?>
<!-- Generator: Adobe Illustrator 18.1.1, SVG Export Plug-In . SVG Version: 6.00 Build 0)  -->
<svg version="1.1" id="Слой_1" xmlns="http://www.w3.org/2000/svg" xmlns:xlink="http://www.w3.org/1999/xlink" x="0px" y="0px"
	 viewBox="0 0 91.7 24.5" enable-background="new 0 0 91.7 24.5" xml:space="preserve">
<g>
	<path fill="#2E2F35" d="M29.6,16.5c0,5.2,3.9,7.2,3.9,7.2V9.3C33.6,9.3,29.6,11.3,29.6,16.5z"/>
	<path fill="#2E2F35" d="M75,16.5c0,5.2,3.9,7.2,3.9,7.2V9.3C79,9.3,75,11.3,75,16.5z"/>
	<path fill="#2E2F35" d="M91.7,16.5c0,5.2-3.9,7.2-3.9,7.2V9.3C87.7,9.3,91.7,11.3,91.7,16.5z"/>
	<polygon fill="#2E2F35" points="12.5,19.3 10.5,24.1 0.8,2.8 0.8,0.5 4.2,0.5 	"/>
	<rect x="20.4" y="0.5" fill="#2E2F35" width="3.8" height="23.8"/>
	<path fill="#2E2F35" d="M58.8,22.4c-0.6-1-1.6-1.5-2.5-2c-0.8-0.5-1.6-1-2.4-1.5c-0.9-0.5-1.7-1-2.6-1.6c-1-0.7-2-1.2-2.8-2.1
		c-0.5-0.5-0.8-1.1-0.9-1.9c0-1.3,0.7-2.8,0.8-3c0.2,0.4,0.3,0.5,0.4,0.7c0.4,0.4,0.8,0.7,1.2,1c0.6,0.4,1.3,0.8,1.9,1.2
		c0.7,0.5,1.4,0.9,2.1,1.4c1.2,0.7,2.3,1.5,3.5,2.3c0.6,0.4,1.2,0.9,1.6,1.5c0.3,0.6,0.4,1.2,0.4,1.9C59.5,20.9,58.9,22.3,58.8,22.4
		z"/>
	<path fill="#2E2F35" d="M44.2,15.5C43.8,10.7,40,8.8,40,8.8v6.6H44.2z"/>
	<path fill="#2E2F35" d="M68.2,3.1l-3.6,2.7v15.4v0c0,1.9,1.5,3.4,3.4,3.4c0.1,0,0.2,0,0.3,0v-3.4l0,0V3.1z"/>
</g>
</svg>
